<svg width="23" height="25" viewBox="0 0 23 25" fill="none" xmlns="http://www.w3.org/2000/svg">
<mask id="mask0_13097_2333" style="mask-type:alpha" maskUnits="userSpaceOnUse" x="4" y="0" width="19" height="19">
<rect width="18.1818" height="18.1818" transform="matrix(-1 0 0 1 22.1816 0)" fill="#D9D9D9"/>
</mask>
<g mask="url(#mask0_13097_2333)">
<path d="M16.235 9.84843L14.0759 12.0075C13.9244 12.159 13.8518 12.3358 13.8581 12.5378C13.8644 12.7398 13.937 12.9166 14.0759 13.0681C14.2274 13.2196 14.4073 13.2986 14.6157 13.3049C14.824 13.3112 15.0039 13.2386 15.1555 13.0871L18.6214 9.62116C18.7729 9.46965 18.8486 9.29288 18.8486 9.09086C18.8486 8.88884 18.7729 8.71207 18.6214 8.56056L15.1555 5.09465C15.0039 4.94313 14.824 4.87053 14.6157 4.87684C14.4073 4.88316 14.2274 4.96207 14.0759 5.11359C13.937 5.2651 13.8644 5.44187 13.8581 5.64389C13.8518 5.84591 13.9244 6.02268 14.0759 6.17419L16.235 8.33328H7.78803C7.57338 8.33328 7.39346 8.40588 7.24825 8.55109C7.10305 8.69629 7.03045 8.87621 7.03045 9.09086C7.03045 9.30551 7.10305 9.48543 7.24825 9.63063C7.39346 9.77583 7.57338 9.84843 7.78803 9.84843H16.235Z" fill="#2D86FF"/>
</g>
<mask id="mask1_13097_2333" style="mask-type:alpha" maskUnits="userSpaceOnUse" x="0" y="6" width="19" height="19">
<rect y="6.81812" width="18.1818" height="18.1818" fill="#D9D9D9"/>
</mask>
<g mask="url(#mask1_13097_2333)">
<path d="M5.94664 16.6667L8.10574 18.8258C8.25725 18.9773 8.32985 19.154 8.32354 19.3561C8.31722 19.5581 8.24462 19.7349 8.10574 19.8864C7.95422 20.0379 7.7743 20.1168 7.56596 20.1231C7.35763 20.1294 7.1777 20.0568 7.02619 19.9053L3.56028 16.4394C3.40877 16.2879 3.33301 16.1111 3.33301 15.9091C3.33301 15.7071 3.40877 15.5303 3.56028 15.3788L7.02619 11.9129C7.1777 11.7614 7.35763 11.6888 7.56596 11.6951C7.7743 11.7014 7.95422 11.7803 8.10574 11.9318C8.24462 12.0833 8.31722 12.2601 8.32354 12.4621C8.32985 12.6641 8.25725 12.8409 8.10574 12.9924L5.94664 15.1515H14.3936C14.6083 15.1515 14.7882 15.2241 14.9334 15.3693C15.0786 15.5145 15.1512 15.6944 15.1512 15.9091C15.1512 16.1237 15.0786 16.3037 14.9334 16.4489C14.7882 16.5941 14.6083 16.6667 14.3936 16.6667H5.94664Z" fill="#2D86FF"/>
</g>
</svg>
